<?xml version="1.0" encoding="UTF-8" standalone="no"?>
<svg
   xmlns:dc="http://purl.org/dc/elements/1.1/"
   xmlns:cc="http://creativecommons.org/ns#"
   xmlns:rdf="http://www.w3.org/1999/02/22-rdf-syntax-ns#"
   xmlns:svg="http://www.w3.org/2000/svg"
   xmlns="http://www.w3.org/2000/svg"
   xmlns:xlink="http://www.w3.org/1999/xlink"
   xmlns:sodipodi="http://sodipodi.sourceforge.net/DTD/sodipodi-0.dtd"
   xmlns:inkscape="http://www.inkscape.org/namespaces/inkscape"
   id="svg6744"
   version="1.1"
   viewBox="0 0 48 48"
   height="48mm"
   width="48mm"
   sodipodi:docname="bat_flat.svg"
   inkscape:version="0.92.3 (2405546, 2018-03-11)">
  <sodipodi:namedview
     pagecolor="#ffffff"
     bordercolor="#666666"
     borderopacity="1"
     objecttolerance="10"
     gridtolerance="10"
     guidetolerance="10"
     inkscape:pageopacity="0"
     inkscape:pageshadow="2"
     inkscape:window-width="2560"
     inkscape:window-height="1403"
     id="namedview16"
     showgrid="false"
     inkscape:zoom="3.6794105"
     inkscape:cx="45.671586"
     inkscape:cy="86.928039"
     inkscape:window-x="0"
     inkscape:window-y="55"
     inkscape:window-maximized="1"
     inkscape:current-layer="svg6744" />
  <defs
     id="defs6738">
    <linearGradient
       y2="192.50822"
       x2="740.62183"
       y1="222.81854"
       x1="740.62183"
       gradientTransform="rotate(-30,811.11367,316.5749)"
       gradientUnits="userSpaceOnUse"
       id="linearGradient2994"
       xlink:href="#linearGradient2964" />
    <linearGradient
       id="linearGradient2964">
      <stop
         style="stop-color:#4070a1;stop-opacity:1"
         offset="0"
         id="stop2960" />
      <stop
         style="stop-color:#d0a9c9;stop-opacity:1"
         offset="1"
         id="stop2962" />
    </linearGradient>
  </defs>
  <metadata
     id="metadata6741">
    <rdf:RDF>
      <cc:Work
         rdf:about="">
        <dc:format>image/svg+xml</dc:format>
        <dc:type
           rdf:resource="http://purl.org/dc/dcmitype/StillImage" />
        <dc:title></dc:title>
      </cc:Work>
    </rdf:RDF>
  </metadata>
  <g
     transform="translate(0,-249)"
     id="layer1">
    <g
       id="g2992"
       transform="matrix(0.18713186,0.32412187,-0.32412187,0.18713186,-20.022892,-2.9564074)">
      <path
         style="fill:#7685b0;fill-opacity:1;fill-rule:nonzero;stroke:none;stroke-width:4.64355946;stroke-linecap:round;stroke-miterlimit:4;stroke-dasharray:none;stroke-opacity:1"
         d="m 666.23806,255.8121 c 0,0 -6.55914,8.90893 -9.63324,19.23294 -3.0741,10.32402 -4.23251,22.25077 -4.23251,22.25077 2.0018,-2.06221 4.09621,-4.69716 7.21333,-6.19342 3.11712,-1.49629 7.00198,-1.38273 10.7393,-0.23089 2.1665,-6.06336 4.12576,-8.49896 6.62486,-9.9453 2.49905,-1.44629 7.16166,-2.68857 11.47778,-0.50626 1.95407,-5.02913 3.41423,-7.18378 4.69412,-8.45765 0.73447,0.79135 1.51863,1.42681 2.35753,1.8623 2.24551,1.16551 4.88163,0.90398 7.48524,-0.41315 0.21449,-0.1086 0.40752,-0.2503 0.60221,-0.38533 0.21393,-0.10158 0.43378,-0.19687 0.63478,-0.32885 2.44243,-1.59629 3.98614,-3.74789 4.09952,-6.27531 0.0424,-0.94429 -0.11593,-1.94109 -0.43402,-2.97284 1.74315,-0.47148 4.3392,-0.65868 9.67159,0.1636 0.26813,-4.82902 3.67528,-8.24576 6.17733,-9.68692 2.50208,-1.44111 5.59104,-1.92008 11.92531,-0.76464 0.87114,-3.81254 2.71523,-7.23372 5.56962,-9.18507 2.85436,-1.95137 6.1835,-2.44771 8.97032,-3.15022 0,0 -10.90808,-4.96016 -21.38598,-7.45992 -10.47792,-2.49975 -21.47285,-1.27384 -21.47285,-1.27384 0,0 1.69283,7.89574 -0.46301,16.08485 -0.64051,2.43306 -1.68495,5.41829 -2.8327,8.41168 -1.45755,-1.83238 -2.94646,-3.05273 -4.5495,-3.58565 -0.54189,-0.60505 -1.30417,-1.44371 -1.89498,-2.00168 -1.60099,-1.51172 -3.82347,-2.32809 -3.82347,-2.32809 0,0 -0.48908,2.01075 -0.45257,3.22514 0.0134,0.44738 0.12517,1.23397 0.24638,2.00292 -0.0515,0.0288 -0.10241,0.0545 -0.15414,0.0844 -0.20824,0.12022 -0.4082,0.24918 -0.60429,0.38167 -0.21273,0.10377 -0.42449,0.21229 -0.6327,0.3325 -0.0518,0.0299 -0.0995,0.062 -0.1506,0.0916 -0.60536,-0.48943 -1.23065,-0.97953 -1.61138,-1.21484 -1.03346,-0.6388 -3.01936,-1.22062 -3.01936,-1.22062 0,0 -0.40467,2.33316 0.10402,4.47552 0.18787,0.79096 0.53327,1.87065 0.78627,2.64237 -0.33971,1.6546 -0.0276,3.55415 0.83026,5.73237 -3.16623,-0.50271 -6.27373,-1.09081 -8.70107,-1.75265 -8.16991,-2.22754 -14.1614,-7.64144 -14.1614,-7.64144 z"
         id="path2010-4-4-0-63-7" />
      <path
         style="color:#000000;font-style:normal;font-variant:normal;font-weight:normal;font-stretch:normal;font-size:medium;line-height:normal;font-family:sans-serif;font-variant-ligatures:normal;font-variant-position:normal;font-variant-caps:normal;font-variant-numeric:normal;font-variant-alternates:normal;font-feature-settings:normal;text-indent:0;text-align:start;text-decoration:none;text-decoration-line:none;text-decoration-style:solid;text-decoration-color:#000000;letter-spacing:normal;word-spacing:normal;text-transform:none;writing-mode:lr-tb;direction:ltr;text-orientation:mixed;dominant-baseline:auto;baseline-shift:baseline;text-anchor:start;white-space:normal;shape-padding:0;clip-rule:nonzero;display:inline;overflow:visible;visibility:visible;opacity:1;isolation:auto;mix-blend-mode:normal;color-interpolation:sRGB;color-interpolation-filters:linearRGB;solid-color:#000000;solid-opacity:1;vector-effect:none;fill:#294a63;fill-opacity:1;fill-rule:nonzero;stroke:none;stroke-width:4;stroke-linecap:round;stroke-linejoin:round;stroke-miterlimit:4;stroke-dasharray:none;stroke-dashoffset:0;stroke-opacity:1;color-rendering:auto;image-rendering:auto;shape-rendering:auto;text-rendering:auto;enable-background:accumulate"
         d="m 706.34384,230.34743 a 2.0002,2.0002 0 0 0 -0.97709,2.16311 c 0,0 1.56742,7.52214 -0.44223,15.15592 -0.38439,1.46019 -1.11136,3.38412 -1.75308,5.19793 -0.73412,-0.60105 -1.54525,-1.0153 -2.37712,-1.37901 -0.53519,-0.5961 -1.20384,-1.33883 -1.8384,-1.93811 -2.01158,-1.89947 -4.5071,-2.75184 -4.5071,-2.75184 a 2.0002,2.0002 0 0 0 -2.63364,1.40325 c 0,0 -0.50077,1.86725 -0.48945,3.6249 -1.51637,-0.88894 -3.383,-1.38687 -3.383,-1.38687 a 2.0002,2.0002 0 0 0 -2.534,1.57582 c 0,0 -0.51036,2.58975 0.12889,5.28185 0.20125,0.84729 0.51223,1.79465 0.76069,2.55583 -0.1018,0.90416 -0.14946,1.81507 0.004,2.75348 -1.89166,-0.35115 -3.92131,-0.68354 -5.37809,-1.08075 -7.61586,-2.07649 -13.34651,-7.19497 -13.34651,-7.19497 a 2.0002,2.0002 0 0 0 -2.95107,0.29876 c 0,0 -6.73278,9.0792 -9.93916,19.84737 -3.15509,10.59607 -4.30591,22.62788 -4.30591,22.62788 a 2.0002,2.0002 0 0 0 3.42556,1.58558 c 2.10919,-2.17284 4.03723,-4.5309 6.64361,-5.78199 2.49707,-1.19866 5.88556,-1.17205 9.28543,-0.1242 a 2.0002,2.0002 0 0 0 2.47205,-1.2378 c 2.09509,-5.86346 3.69361,-7.70019 5.7424,-8.8859 1.99556,-1.15445 6.04804,-2.23565 9.5737,-0.45301 a 2.0002,2.0002 0 0 0 2.76792,-1.06131 c 1.35578,-3.48932 2.34641,-5.17322 3.21232,-6.36969 0.36179,0.25948 0.65739,0.61865 1.05313,0.82407 2.92183,1.51655 6.31599,1.1124 9.30987,-0.40217 0.34296,-0.17365 0.53494,-0.32236 0.69988,-0.44011 0.17944,-0.0814 0.40221,-0.17009 0.73109,-0.38606 2.80681,-1.83551 4.85236,-4.57238 4.99985,-7.85955 0.02,-0.44552 -0.14492,-0.88016 -0.1888,-1.32309 1.46914,-0.15166 3.42274,-0.16763 7.12247,0.40289 a 2.0002,2.0002 0 0 0 2.30307,-1.86643 c 0.21902,-3.94463 3.18136,-6.91383 5.17918,-8.06456 2.05103,-1.18186 4.44117,-1.64745 10.56662,-0.53012 a 2.0002,2.0002 0 0 0 2.30969,-1.52294 c 0.79247,-3.46828 2.46196,-6.41513 4.74858,-7.97834 2.38664,-1.63163 5.39452,-2.12332 8.33084,-2.86351 a 2.0002,2.0002 0 0 0 0.33794,-3.75844 c 0,0 -10.99524,-5.01928 -21.74928,-7.58491 -10.92869,-2.6073 -22.1579,-1.31612 -22.1579,-1.31612 a 2.0002,2.0002 0 0 0 -0.75719,0.2432 z m -39.57473,28.34909 c 2.01599,1.6261 6.31878,4.83532 13.10418,6.68538 2.55548,0.69677 5.70874,1.28902 8.91339,1.79784 a 2.0002,2.0002 0 0 0 2.17384,-2.70746 c -0.77314,-1.96328 -0.96218,-3.47309 -0.73173,-4.59552 a 2.0002,2.0002 0 0 0 -0.0581,-1.02643 c -0.24883,-0.75894 -0.58542,-1.82891 -0.74049,-2.48178 -0.0849,-0.35737 -0.0544,-0.71408 -0.0821,-1.09149 0.15854,0.098 0.81779,0.59292 1.40647,1.06887 a 2.0002,2.0002 0 0 0 2.25596,0.17698 c 0.12936,-0.0747 0.17568,-0.10605 0.15023,-0.0914 0.14867,-0.0858 0.31776,-0.17307 0.50899,-0.26684 a 2.0002,2.0002 0 0 0 0.24357,-0.14063 c 0.17463,-0.11803 0.33593,-0.22097 0.48559,-0.30737 -0.0101,0.006 0.031,-0.0156 0.13055,-0.0708 a 2.0002,2.0002 0 0 0 0.9984,-2.05588 c -0.11787,-0.74774 -0.21572,-1.56452 -0.22147,-1.75078 0.31236,0.21241 0.63663,0.36347 0.90321,0.61519 0.48742,0.46032 1.24414,1.2878 1.77735,1.88315 a 2.0002,2.0002 0 0 0 0.85888,0.56184 c 1.08719,0.36146 2.30102,1.28133 3.61495,2.93316 a 2.0002,2.0002 0 0 0 3.43165,-0.52887 c 1.16171,-3.02974 2.22541,-6.05665 2.89973,-8.61815 1.79049,-6.80135 1.16262,-12.13229 0.76238,-14.69124 2.54293,-0.20662 10.2673,-0.71354 18.77502,1.31617 6.09714,1.45462 11.54597,3.47382 15.64308,5.11805 -1.29769,0.46004 -2.6145,1.02421 -3.89118,1.89701 -2.92867,2.00213 -4.77745,5.16177 -5.86005,8.63133 -5.40388,-0.773 -8.84748,-0.29413 -11.50344,1.23562 -2.61742,1.5077 -5.73687,4.71954 -6.74556,9.27338 -4.09174,-0.48679 -6.83174,-0.4343 -8.62826,0.0515 a 2.0002,2.0002 0 0 0 -1.38879,2.52033 c 0.2662,0.86323 0.37725,1.63402 0.34768,2.29361 -0.0793,1.76641 -1.11949,3.33425 -3.19581,4.69125 a 2.0002,2.0002 0 0 0 -0.003,0.002 c -0.009,0.006 -0.13676,0.072 -0.39523,0.19436 a 2.0002,2.0002 0 0 0 -0.28247,0.16308 c -0.22565,0.15649 -0.34549,0.23446 -0.36424,0.24413 -2.21332,1.1197 -4.09145,1.2365 -5.66065,0.42202 -0.58656,-0.30449 -1.20013,-0.78525 -1.81418,-1.44692 a 2.0002,2.0002 0 0 0 -2.87706,-0.0574 c -1.31881,1.31275 -2.73306,3.65967 -4.35704,7.44556 -4.44832,-1.40369 -8.79094,-0.307 -11.40545,1.20612 -2.65261,1.53495 -4.78778,4.27804 -6.82011,9.34348 -3.54627,-0.79741 -7.20819,-0.77507 -10.40667,0.76027 -1.39421,0.66924 -2.54119,1.52755 -3.58844,2.42135 0.62461,-4.37033 1.60035,-10.09874 3.38918,-16.10633 2.49582,-8.38185 6.79667,-14.81785 8.24767,-16.91773 z"
         id="path2005-6-1-7-9-8-7" />
      <g
         style="fill:#ffeeaa"
         transform="translate(0.18267036,-0.10546478)"
         id="g2985">
        <circle
           style="fill:#ffeeaa;fill-opacity:1;fill-rule:nonzero;stroke:none;stroke-width:2.28571439;stroke-linecap:round;stroke-linejoin:round;stroke-miterlimit:4;stroke-dasharray:none;stroke-opacity:1"
           id="path2966"
           cx="470.11816"
           cy="571.46301"
           r="0.79375005"
           transform="rotate(-30)" />
        <circle
           style="fill:#ffeeaa;fill-opacity:1;fill-rule:nonzero;stroke:none;stroke-width:2.28571439;stroke-linecap:round;stroke-linejoin:round;stroke-miterlimit:4;stroke-dasharray:none;stroke-opacity:1"
           id="path2966-1"
           cx="475.04605"
           cy="571.46301"
           r="0.79375005"
           transform="rotate(-30)" />
      </g>
    </g>
  </g>
</svg>
