<?xml version="1.0" encoding="UTF-8" standalone="no"?>
<svg
   xmlns:dc="http://purl.org/dc/elements/1.1/"
   xmlns:cc="http://creativecommons.org/ns#"
   xmlns:rdf="http://www.w3.org/1999/02/22-rdf-syntax-ns#"
   xmlns:svg="http://www.w3.org/2000/svg"
   xmlns="http://www.w3.org/2000/svg"
   xmlns:xlink="http://www.w3.org/1999/xlink"
   xmlns:sodipodi="http://sodipodi.sourceforge.net/DTD/sodipodi-0.dtd"
   xmlns:inkscape="http://www.inkscape.org/namespaces/inkscape"
   id="svg6744"
   version="1.1"
   viewBox="0 0 48 48"
   height="48mm"
   width="48mm"
   sodipodi:docname="moon_flat.svg"
   inkscape:version="0.92.3 (2405546, 2018-03-11)">
  <sodipodi:namedview
     pagecolor="#ffffff"
     bordercolor="#666666"
     borderopacity="1"
     objecttolerance="10"
     gridtolerance="10"
     guidetolerance="10"
     inkscape:pageopacity="0"
     inkscape:pageshadow="2"
     inkscape:window-width="2560"
     inkscape:window-height="1403"
     id="namedview18"
     showgrid="false"
     inkscape:zoom="5.2034722"
     inkscape:cx="75.200867"
     inkscape:cy="106.26063"
     inkscape:window-x="0"
     inkscape:window-y="55"
     inkscape:window-maximized="1"
     inkscape:current-layer="svg6744" />
  <defs
     id="defs6738">
    <linearGradient
       gradientTransform="matrix(0.37426371,0,0,0.37426371,-1.404766,263.9056)"
       y2="185.9023"
       x2="986.12054"
       y1="191.86496"
       x1="979.23608"
       gradientUnits="userSpaceOnUse"
       id="linearGradient6211"
       xlink:href="#linearGradient6223" />
    <linearGradient
       id="linearGradient6223">
      <stop
         id="stop6219"
         offset="0"
         style="stop-color:#d79fec;stop-opacity:1" />
      <stop
         id="stop6221"
         offset="1"
         style="stop-color:#76d6ff;stop-opacity:1" />
    </linearGradient>
    <linearGradient
       gradientTransform="matrix(0.37426371,0,0,0.37426371,-1.404766,263.9056)"
       y2="183.01033"
       x2="977.83423"
       y1="224.41505"
       x1="930.53571"
       gradientUnits="userSpaceOnUse"
       id="linearGradient6209"
       xlink:href="#linearGradient6196" />
    <linearGradient
       id="linearGradient6196">
      <stop
         style="stop-color:#ffe888;stop-opacity:1"
         offset="0"
         id="stop6192" />
      <stop
         style="stop-color:#ff76a2;stop-opacity:1"
         offset="1"
         id="stop6194" />
    </linearGradient>
  </defs>
  <metadata
     id="metadata6741">
    <rdf:RDF>
      <cc:Work
         rdf:about="">
        <dc:format>image/svg+xml</dc:format>
        <dc:type
           rdf:resource="http://purl.org/dc/dcmitype/StillImage" />
        <dc:title></dc:title>
      </cc:Work>
    </rdf:RDF>
  </metadata>
  <g
     transform="translate(0,-249)"
     id="layer1">
    <g
       transform="translate(-331.31187,-68.360891)"
       id="g7712">
      <path
         style="fill:#ffe888;fill-opacity:1;fill-rule:nonzero;stroke:none;stroke-width:1.49705493;stroke-linecap:round;stroke-linejoin:round;stroke-miterlimit:4;stroke-dasharray:none;stroke-opacity:1"
         d="m 364.14294,330.41275 a 14.061399,14.061399 0 0 0 -15.85232,-1.2292 14.061399,14.061399 0 0 0 -5.14682,19.20823 14.061399,14.061399 0 0 0 19.20822,5.14682 14.061399,14.061399 0 0 0 6.86425,-14.2488 10.991658,10.991658 0 0 1 -5.48337,9.90692 10.991658,10.991658 0 0 1 -15.0149,-4.02322 10.991658,10.991658 0 0 1 4.02322,-15.01487 10.991658,10.991658 0 0 1 11.40172,0.25412 z"
         id="path5974-0" />
      <path
         style="fill:#d79fec;fill-opacity:1;fill-rule:nonzero;stroke:none;stroke-width:1.12279117;stroke-linecap:round;stroke-linejoin:round;stroke-miterlimit:4;stroke-dasharray:none;stroke-opacity:1"
         id="path6061-8"
         d="m 365.56219,338.98568 -0.98188,-2.4896 -2.48961,-0.98189 2.48961,-0.98189 0.98188,-2.4896 0.98189,2.4896 2.48961,0.98189 -2.48961,0.98189 z" />
      <path
         style="color:#000000;font-style:normal;font-variant:normal;font-weight:normal;font-stretch:normal;font-size:medium;line-height:normal;font-family:sans-serif;font-variant-ligatures:normal;font-variant-position:normal;font-variant-caps:normal;font-variant-numeric:normal;font-variant-alternates:normal;font-feature-settings:normal;text-indent:0;text-align:start;text-decoration:none;text-decoration-line:none;text-decoration-style:solid;text-decoration-color:#000000;letter-spacing:normal;word-spacing:normal;text-transform:none;writing-mode:lr-tb;direction:ltr;text-orientation:mixed;dominant-baseline:auto;baseline-shift:baseline;text-anchor:start;white-space:normal;shape-padding:0;clip-rule:nonzero;display:inline;overflow:visible;visibility:visible;opacity:1;isolation:auto;mix-blend-mode:normal;color-interpolation:sRGB;color-interpolation-filters:linearRGB;solid-color:#000000;solid-opacity:1;vector-effect:none;fill:#294a63;fill-opacity:1;fill-rule:nonzero;stroke:none;stroke-width:1.49705493;stroke-linecap:round;stroke-linejoin:round;stroke-miterlimit:4;stroke-dasharray:none;stroke-dashoffset:0;stroke-opacity:1;color-rendering:auto;image-rendering:auto;shape-rendering:auto;text-rendering:auto;enable-background:accumulate"
         d="m 355.29086,326.55288 c -0.33998,3.7e-4 -0.68027,0.0126 -1.02002,0.0367 -2.19374,0.15502 -4.36814,0.79881 -6.35436,1.94528 -7.07579,4.08522 -9.50618,13.15487 -5.42099,20.23068 4.08523,7.07579 13.15489,9.50618 20.23068,5.42097 5.22946,-3.02614 8.08702,-8.93055 7.23665,-14.90541 0,-0.007 0,-0.0123 0,-0.0184 h -0.004 c -0.005,-0.0282 0,-0.0558 -0.007,-0.0839 a 0.74860226,0.74860226 0 0 0 -1.48826,0.13732 c 0.1348,3.78695 -1.82902,7.33567 -5.1096,9.23224 -4.9069,2.83299 -11.15954,1.15772 -13.99255,-3.74918 -2.833,-4.90689 -1.15754,-11.15935 3.74937,-13.99236 3.31013,-1.90906 7.40297,-1.81793 10.62478,0.23674 a 0.74860226,0.74860226 0 0 0 0.87281,-1.2142 c -0.0218,-0.0175 -0.0463,-0.0296 -0.0681,-0.0468 v -0.002 c -0.005,-0.004 -0.01,-0.005 -0.0146,-0.008 -2.68504,-2.13391 -5.95348,-3.22501 -9.24021,-3.22021 z m -0.1402,1.49773 c 0.42955,-0.005 0.85905,0.0141 1.28691,0.0501 -1.40994,0.21813 -2.79279,0.67263 -4.07024,1.40937 -5.60754,3.23753 -7.53426,10.43005 -4.29669,16.03761 3.23749,5.60758 10.42945,7.53425 16.03701,4.29671 1.26643,-0.73215 2.34375,-1.6939 3.23395,-2.7951 -1.13067,2.39479 -2.96743,4.45401 -5.36471,5.84125 -6.37504,3.68021 -14.50406,1.50149 -18.18466,-4.87344 -3.68064,-6.37514 -1.50243,-14.50474 4.87271,-18.18542 1.78688,-1.03141 3.74116,-1.61107 5.71263,-1.75069 0.2576,-0.0182 0.51533,-0.0282 0.77305,-0.0304 z m 10.40871,3.43084 a 0.56145169,0.56145169 0 0 0 -0.51969,0.35529 l -0.89179,2.26246 -2.26303,0.89238 a 0.56145169,0.56145169 0 0 0 0,1.04459 l 2.26303,0.89256 0.89179,2.26247 a 0.56145169,0.56145169 0 0 0 1.04461,0 l 0.89258,-2.26247 2.26303,-0.89256 a 0.56145169,0.56145169 0 0 0 0,-1.04459 l -2.26303,-0.89238 -0.89258,-2.26246 a 0.56145169,0.56145169 0 0 0 -0.52492,-0.35529 z m 0.005,2.09052 0.45973,1.16605 a 0.56145169,0.56145169 0 0 0 0.31582,0.31641 l 1.16528,0.45991 -1.16528,0.45896 a 0.56145169,0.56145169 0 0 0 -0.31582,0.31661 l -0.45973,1.16584 -0.4597,-1.16584 a 0.56145169,0.56145169 0 0 0 -0.31663,-0.31661 l -1.16448,-0.45896 1.16448,-0.45991 a 0.56145169,0.56145169 0 0 0 0.31663,-0.31641 z"
         id="path5974" />
    </g>
  </g>
</svg>
